<svg xmlns="http://www.w3.org/2000/svg" width="302" height="82" viewBox="0 0 302 82" xmlns:c2pa="http://c2pa.org/manifest"><metadata><c2pa:manifest>AAAWgmp1bWIAAAAeanVtZGMycGEAEQAQgAAAqgA4m3EDYzJwYQAAABZcanVtYgAAAEdqdW1kYzJtYQARABCAAACqADibcQN1cm46YzJwYToyODQ5ZTEwYS0zMmZkLTQ2OWYtOWJhYS0wOTgxOTFlMzNlOGQAAAADl2p1bWIAAAApanVtZGMyYXMAEQAQgAAAqgA4m3EDYzJwYS5hc3NlcnRpb25zAAAAALxqdW1iAAAARGp1bWRjYm9yABEAEIAAAKoAOJtxE2MycGEuaW5ncmVkaWVudC52MwAAAAAYYzJzaBL3mfmiJ0n3kFuqdJPx4PcAAABwY2JvcqNpZGM6Zm9ybWF0bWltYWdlL3N2Zyt4bWxqaW5zdGFuY2VJRHgseG1wOmlpZDpmYWE0YTJhOC0yZTc0LTQ0ZTEtYTUxYy1kZjQzODY5MWJhNDBscmVsYXRpb25zaGlwaHBhcmVudE9mAAAB4mp1bWIAAABBanVtZGNib3IAEQAQgAAAqgA4m3ETYzJwYS5hY3Rpb25zLnYyAAAAABhjMnNoVSmHsRbcU8uSyw5s1J+OHgAAAZljYm9yomdhY3Rpb25zgqJmYWN0aW9ua2MycGEub3BlbmVkanBhcmFtZXRlcnOha2luZ3JlZGllbnRzgaJjdXJseC1zZWxmI2p1bWJmPWMycGEuYXNzZXJ0aW9ucy9jMnBhLmluZ3JlZGllbnQudjNkaGFzaFggPsaRwKAE6/yRujS8TuEfGeldbmM95pa99Jny4TGNCHmkZmFjdGlvbngdY29tLmFudGhyb3BpYy5jbGF1ZGUucHJvdmlkZWRqcGFyYW1ldGVyc6F4H2NvbS5hbnRocm9waWMub3JpZ2luLWNvbmZpZGVuY2VndW5rbm93bmtkZXNjcmlwdGlvbnhmQ2xhdWRlIHByb3ZpZGVkIHRoaXMgZmlsZSBhdCB0aGUgcmVxdWVzdCBvZiBhIHVzZXIgYW5kIG1heSBoYXZlIGNyZWF0ZWQgb3IgbW9kaWZpZWQgdGhlIGZpbGUgY29udGVudHMubXNvZnR3YXJlQWdlbnShZG5hbWVmQ2xhdWRlcmFsbEFjdGlvbnNJbmNsdWRlZPUAAADIanVtYgAAAEBqdW1kY2JvcgARABCAAACqADibcRNjMnBhLmhhc2guZGF0YQAAAAAYYzJzaAKXd4mblD4IBX42bJIWXi4AAACAY2JvcqVjYWxnZnNoYTI1NmNwYWRNAAAAAAAAAAAAAAAAAGRoYXNoWCCgIGk+A5rU9NvdFQspwR68aXJD2rRp34yn3jM3G2LcbmRuYW1lbmp1bWJmIG1hbmlmZXN0amV4Y2x1c2lvbnOBomVzdGFydBiUZmxlbmd0aBkeBAAAAj5qdW1iAAAAJ2p1bWRjMmNsABEAEIAAAKoAOJtxA2MycGEuY2xhaW0udjIAAAACD2Nib3KlY2FsZ2ZzaGEyNTZpc2lnbmF0dXJleE1zZWxmI2p1bWJmPS9jMnBhL3VybjpjMnBhOjI4NDllMTBhLTMyZmQtNDY5Zi05YmFhLTA5ODE5MWUzM2U4ZC9jMnBhLnNpZ25hdHVyZWppbnN0YW5jZUlEeCx4bXA6aWlkOjQwMDBkM2E2LTZhMmUtNDdjYS1hNzYwLWFmMDk1YWU3NTYzNnJjcmVhdGVkX2Fzc2VydGlvbnODomN1cmx4LXNlbGYjanVtYmY9YzJwYS5hc3NlcnRpb25zL2MycGEuaW5ncmVkaWVudC52M2RoYXNoWCA+xpHAoATr/JG6NLxO4R8Z6V1uYz3mlr30mfLhMY0IeaJjdXJseCpzZWxmI2p1bWJmPWMycGEuYXNzZXJ0aW9ucy9jMnBhLmFjdGlvbnMudjJkaGFzaFggQPetmGZo4/UJAML812rZ6DRypV7JFKFV1tEihigqYEyiY3VybHgpc2VsZiNqdW1iZj1jMnBhLmFzc2VydGlvbnMvYzJwYS5oYXNoLmRhdGFkaGFzaFggdH0/G0/yccFEodqh37GivbsD28vsiRk0f2UISttSz7d0Y2xhaW1fZ2VuZXJhdG9yX2luZm+jZG5hbWVvQW50aHJvcGljIEZpbGVzZ3ZlcnNpb25lMS4wLjBrc3BlY1ZlcnNpb25lMi40LjAAABA4anVtYgAAAChqdW1kYzJjcwARABCAAACqADibcQNjMnBhLnNpZ25hdHVyZQAAABAIY2JvctKEWQISogEmGCFZAgowggIGMIIBjaADAgECAhRA5aAK7sI50L64g/oGQgU9Z1UTADAKBggqhkjOPQQDAzBJMRcwFQYDVQQKEw5BbnRocm9waWMsIFBCQzEuMCwGA1UEAxMlQW50aHJvcGljIENvbnRlbnQgQ3JlZGVudGlhbHMgUm9vdCBDQTAeFw0yNjA4MDcxODQzNTZaFw0yODA4MDYxOTQzNTZaMEQxFzAVBgNVBAoTDkFudGhyb3BpYywgUEJDMSkwJwYDVQQDEyBBbnRocm9waWMgQ2xhdWRlIENvbnRlbnQgU2lnbmluZzBZMBMGByqGSM49AgEGCCqGSM49AwEHA0IABJh6CmvLUBgFFNU0vUKlOVtE6djd17L5SuwX0LemFisBM3dkd/3cyjxFA3Qo5S46fX0/ihY0VZ7mfb9KF703t5OjWDBWMA4GA1UdDwEB/wQEAwIHgDAVBgNVHSUEDjAMBgorBgEEAYPoXgIBMAwGA1UdEwEB/wQCMAAwHwYDVR0jBBgwFoAUzlHiBIFOZFsj+OPEz5o+nMHXXMIwCgYIKoZIzj0EAwMDZwAwZAIwMXMdFJ4BetLLVY7ORuE9noqbbAZOZn/aArXyTwFAZfKrPzxF2vPoJNf1+UCdg1XGAjBwX1zd9WGqYkqmL5SFqw1QySjr1zJfpJM9+1rdDwSPLMOPOjKuiXjoU/pUUeG9RwmhY3BhZFkNngAAAAAAAAAAAAAAAAAAAAAAAAAAAAAAAAAAAAAAAAAAAAAAAAAAAAAAAAAAAAAAAAAAAAAAAAAAAAAAAAAAAAAAAAAAAAAAAAAAAAAAAAAAAAAAAAAAAAAAAAAAAAAAAAAAAAAAAAAAAAAAAAAAAAAAAAAAAAAAAAAAAAAAAAAAAAAAAAAAAAAAAAAAAAAAAAAAAAAAAAAAAAAAAAAAAAAAAAAAAAAAAAAAAAAAAAAAAAAAAAAAAAAAAAAAAAAAAAAAAAAAAAAAAAAAAAAAAAAAAAAAAAAAAAAAAAAAAAAAAAAAAAAAAAAAAAAAAAAAAAAAAAAAAAAAAAAAAAAAAAAAAAAAAAAAAAAAAAAAAAAAAAAAAAAAAAAAAAAAAAAAAAAAAAAAAAAAAAAAAAAAAAAAAAAAAAAAAAAAAAAAAAAAAAAAAAAAAAAAAAAAAAAAAAAAAAAAAAAAAAAAAAAAAAAAAAAAAAAAAAAAAAAAAAAAAAAAAAAAAAAAAAAAAAAAAAAAAAAAAAAAAAAAAAAAAAAAAAAAAAAAAAAAAAAAAAAAAAAAAAAAAAAAAAAAAAAAAAAAAAAAAAAAAAAAAAAAAAAAAAAAAAAAAAAAAAAAAAAAAAAAAAAAAAAAAAAAAAAAAAAAAAAAAAAAAAAAAAAAAAAAAAAAAAAAAAAAAAAAAAAAAAAAAAAAAAAAAAAAAAAAAAAAAAAAAAAAAAAAAAAAAAAAAAAAAAAAAAAAAAAAAAAAAAAAAAAAAAAAAAAAAAAAAAAAAAAAAAAAAAAAAAAAAAAAAAAAAAAAAAAAAAAAAAAAAAAAAAAAAAAAAAAAAAAAAAAAAAAAAAAAAAAAAAAAAAAAAAAAAAAAAAAAAAAAAAAAAAAAAAAAAAAAAAAAAAAAAAAAAAAAAAAAAAAAAAAAAAAAAAAAAAAAAAAAAAAAAAAAAAAAAAAAAAAAAAAAAAAAAAAAAAAAAAAAAAAAAAAAAAAAAAAAAAAAAAAAAAAAAAAAAAAAAAAAAAAAAAAAAAAAAAAAAAAAAAAAAAAAAAAAAAAAAAAAAAAAAAAAAAAAAAAAAAAAAAAAAAAAAAAAAAAAAAAAAAAAAAAAAAAAAAAAAAAAAAAAAAAAAAAAAAAAAAAAAAAAAAAAAAAAAAAAAAAAAAAAAAAAAAAAAAAAAAAAAAAAAAAAAAAAAAAAAAAAAAAAAAAAAAAAAAAAAAAAAAAAAAAAAAAAAAAAAAAAAAAAAAAAAAAAAAAAAAAAAAAAAAAAAAAAAAAAAAAAAAAAAAAAAAAAAAAAAAAAAAAAAAAAAAAAAAAAAAAAAAAAAAAAAAAAAAAAAAAAAAAAAAAAAAAAAAAAAAAAAAAAAAAAAAAAAAAAAAAAAAAAAAAAAAAAAAAAAAAAAAAAAAAAAAAAAAAAAAAAAAAAAAAAAAAAAAAAAAAAAAAAAAAAAAAAAAAAAAAAAAAAAAAAAAAAAAAAAAAAAAAAAAAAAAAAAAAAAAAAAAAAAAAAAAAAAAAAAAAAAAAAAAAAAAAAAAAAAAAAAAAAAAAAAAAAAAAAAAAAAAAAAAAAAAAAAAAAAAAAAAAAAAAAAAAAAAAAAAAAAAAAAAAAAAAAAAAAAAAAAAAAAAAAAAAAAAAAAAAAAAAAAAAAAAAAAAAAAAAAAAAAAAAAAAAAAAAAAAAAAAAAAAAAAAAAAAAAAAAAAAAAAAAAAAAAAAAAAAAAAAAAAAAAAAAAAAAAAAAAAAAAAAAAAAAAAAAAAAAAAAAAAAAAAAAAAAAAAAAAAAAAAAAAAAAAAAAAAAAAAAAAAAAAAAAAAAAAAAAAAAAAAAAAAAAAAAAAAAAAAAAAAAAAAAAAAAAAAAAAAAAAAAAAAAAAAAAAAAAAAAAAAAAAAAAAAAAAAAAAAAAAAAAAAAAAAAAAAAAAAAAAAAAAAAAAAAAAAAAAAAAAAAAAAAAAAAAAAAAAAAAAAAAAAAAAAAAAAAAAAAAAAAAAAAAAAAAAAAAAAAAAAAAAAAAAAAAAAAAAAAAAAAAAAAAAAAAAAAAAAAAAAAAAAAAAAAAAAAAAAAAAAAAAAAAAAAAAAAAAAAAAAAAAAAAAAAAAAAAAAAAAAAAAAAAAAAAAAAAAAAAAAAAAAAAAAAAAAAAAAAAAAAAAAAAAAAAAAAAAAAAAAAAAAAAAAAAAAAAAAAAAAAAAAAAAAAAAAAAAAAAAAAAAAAAAAAAAAAAAAAAAAAAAAAAAAAAAAAAAAAAAAAAAAAAAAAAAAAAAAAAAAAAAAAAAAAAAAAAAAAAAAAAAAAAAAAAAAAAAAAAAAAAAAAAAAAAAAAAAAAAAAAAAAAAAAAAAAAAAAAAAAAAAAAAAAAAAAAAAAAAAAAAAAAAAAAAAAAAAAAAAAAAAAAAAAAAAAAAAAAAAAAAAAAAAAAAAAAAAAAAAAAAAAAAAAAAAAAAAAAAAAAAAAAAAAAAAAAAAAAAAAAAAAAAAAAAAAAAAAAAAAAAAAAAAAAAAAAAAAAAAAAAAAAAAAAAAAAAAAAAAAAAAAAAAAAAAAAAAAAAAAAAAAAAAAAAAAAAAAAAAAAAAAAAAAAAAAAAAAAAAAAAAAAAAAAAAAAAAAAAAAAAAAAAAAAAAAAAAAAAAAAAAAAAAAAAAAAAAAAAAAAAAAAAAAAAAAAAAAAAAAAAAAAAAAAAAAAAAAAAAAAAAAAAAAAAAAAAAAAAAAAAAAAAAAAAAAAAAAAAAAAAAAAAAAAAAAAAAAAAAAAAAAAAAAAAAAAAAAAAAAAAAAAAAAAAAAAAAAAAAAAAAAAAAAAAAAAAAAAAAAAAAAAAAAAAAAAAAAAAAAAAAAAAAAAAAAAAAAAAAAAAAAAAAAAAAAAAAAAAAAAAAAAAAAAAAAAAAAAAAAAAAAAAAAAAAAAAAAAAAAAAAAAAAAAAAAAAAAAAAAAAAAAAAAAAAAAAAAAAAAAAAAAAAAAAAAAAAAAAAAAAAAAAAAAAAAAAAAAAAAAAAAAAAAAAAAAAAAAAAAAAAAAAAAAAAAAAAAAAAAAAAAAAAAAAAAAAAAAAAAAAAAAAAAAAAAAAAAAAAAAAAAAAAAAAAAAAAAAAAAAAAAAAAAAAAAAAAAAAAAAAAAAAAAAAAAAAAAAAAAAAAAAAAAAAAAAAAAAAAAAAAAAAAAAAAAAAAAAAAAAAAAAAAAAAAAAAAAAAAAAAAAAAAAAAAAAAAAAAAAAAAAAAAAAAAAAAAAAAAAAAAAAAAAAAAAAAAAAAAAAAAAAAAAAAAAAAAAAAAAAAAAAAAAAAAAAAAAAAAAAAAAAAAAAAAAAAAAAAAAAAAAAAAAAAAAAAAAAAAAAAAAAAAAAAAAAAAAAAAAAAAAAAAAAAAAAAAAAAAAAAAAAAAAAAAAAAAAAAAAAAAAAAAAAAAAAAAAAAAAAAAAAAAAAAAAAAAAAAAAAAAAAAAAAAAAAAAAAAAAAAAAAAAAAAAAAAAAAAAAAAAAAAAAAAAAAAAAAAAAAAAAAAAAAAAAAAAAAAAAAAAAAAAAAAAAAAAAAAAAAAAAAAAAAAAAAAAAAAAAAAAAAAAAAAAAAAAAAAAAAAAAAAAAAAAAAAAAAAAAAAAAAAAAAAAAAAAAAAAAAAAAAAAAAAAAAAAAAAAAAAAAAAAAAAAAAAAAAAAAAAAAAAAAAAAAAAAAAAAAAAAAAAAAAAAAAAAAAAAAAAAAAAAAAAAAAAAAAAAAAAAAAAAAAAAAAAAAAAAAAAAAAAAAAAAAAAAAAAAAAAAAAAAAAAAAAAAAAAAAAAAAAAAAAAAAAAAAAAAAAAAAAAAAAAAAAAAAAAAAAAAAAAAAAAAAAAAAAAAAAAAAAAAAAAAAAAAAAAAAAAAAAAAAAAAAAAAAAAAAAAAAAAAAAAAAAAAAAAAAAAAAAAAAAAAAAAAAAAAAAAAAAAAAAAAAAAAAAAAAAAAAAAAAAAAAAAAAAAAAAAAAAAAAAAAAAAAAAAAAAAAAAAAAAAAAAAAAAAAAAAAAAAAAAAAAAAAAAAAAAAAAAAAAAAAAAAAAAAAAAAAAAAAAAAAAAAAAAAAAAAAAAAAAAAAAAAAAAAAAAAAAAAAAAAAAAAAAAAAAAAAAAAAAAAAAAAAAAAAAAAAAAAAAAAAAAAAAAAAAAAAAAAAAAAAAAAAAAAAAAAAAAAAAAAAAAAAAAAAAAAAAAAAAAAAAAAAAAAAAAAAAAAAAAAAAAAAAAAAAAAAAAAAAAAAAAAAAAAAAAAAAAAAAAAAAAAAAAAAAAAAAAAAAAAAAAAAAAAAAAAAAAAAAAAAAAAAAAAAAAAAAAAAAAAAAAAAAAAAAAAAAAAAAAAAAAAAAAAAAAAAAAAAAAAAAAAAAAAAAAAAAAAAAAAAAAAAAAAAAAAAAAAAAAAAAAAAAAAAAAAAAAAAAAAAAAAAAAAAAAAAAAAAAAAAAAAAAAAAAAAAAAAAAAAAAAAAAAAAAAAAAAAAAAAAAAAAAAAAAAAAAAAAAAAAAAAAAAAAAAAAAAAAAAAAAAAAAAAAAAAAAAAAAAAAAAAAAAAAAAAAAAAAAAAAAAAAAAAAAAAAAAAAAAAAAAAAAAAAAAAAAAAAAAAAAAAAAAAAAAAAAAAAAAAAAAAAAAAAAAAAAAAAAAAAAAAAAAAAAAAAAAAAAAAAAAAAAAAAAAAAAAAAAAAAAPZYQGGw8MWycC4bJ394/bJm4BbNoqCSA2X+L31BOgkizbDkULF+ix9hB+XKBcU9mMF1Oc2w54MjYpd+QDH/zd/O2Ic=</c2pa:manifest></metadata><path d="M14.2,4.4 L38.4,4.4 Q39.4,4.4 39.4,5.4 L39.4,13.4 C37.4,14.6 35.6,16.8 35.3,19.6 C35,22.4 36.6,24.4 38.8,25.4 L41.5,28 L28,47 L20.5,44.4 L1.8,34.6 Q0.7,34 0.7,32.8 L0.7,15.2 Q0.7,13.6 2.3,13.6 L4.6,13.6 C8.7,13.6 11.2,11.9 12.3,8.8 C13.1,6.6 13.2,4.4 14.2,4.4 Z" fill="#119a3e"></path><path d="M14.2,4.4 L38.4,4.4 Q39.4,4.4 39.4,5.4 L39.4,13.4 C37.4,14.6 35.6,16.8 35.3,19.6 C35,22.4 36.6,24.4 38.8,25.4 L41.5,28 L28,44 L21.4,41.4 L1.8,31.6 Q0.7,31 0.7,29.8 L0.7,15.2 Q0.7,13.6 2.3,13.6 L4.6,13.6 C8.7,13.6 11.2,11.9 12.3,8.8 C13.1,6.6 13.2,4.4 14.2,4.4 Z" fill="#31c35a"></path><path d="M1.4,31.4 L21.4,41.4" fill="none" stroke="#f4f5fb" stroke-width="1.4" stroke-linecap="round" stroke-linejoin="round"></path><g transform="translate(125,7.6)"><path d="M0,25.4 L0,18.2 C0,8.15 8.15,0 18.2,0 C28.25,0 36.4,8.15 36.4,18.2 L36.4,25.4 Z" fill="#31c35a"></path><path d="M4,23 L4,18.2 A14.2,14.2 0 0 1 29.08,9.07" fill="none" stroke="#f4f5fb" stroke-width="3" stroke-linecap="butt" stroke-linejoin="round"></path><clipPath id="vz"><rect x="7.3" y="10.2" width="24" height="12" rx="2.6"></rect></clipPath><g clip-path="url(#vz)"><rect x="7.3" y="10.2" width="24" height="12" fill="#E8EEFB"></rect><svg x="7.3" y="10.2" width="24" height="12" viewBox="22 11 56 28" preserveAspectRatio="xMidYMid slice"><ellipse cx="41" cy="109" rx="7" ry="4.5" fill="#3D9B4B"></ellipse><ellipse cx="59" cy="109" rx="7" ry="4.5" fill="#3D9B4B"></ellipse><ellipse cx="27" cy="86" rx="6" ry="10" fill="#6CCB6C" transform="rotate(22 27 86)"></ellipse><ellipse cx="73" cy="86" rx="6" ry="10" fill="#6CCB6C" transform="rotate(-22 73 86)"></ellipse><ellipse cx="50" cy="89" rx="22" ry="19" fill="#6CCB6C"></ellipse><ellipse cx="50" cy="92" rx="14" ry="12" fill="#D6F2BF"></ellipse><circle cx="50" cy="50" r="31" fill="#6CCB6C"></circle><circle cx="37" cy="23" r="9.5" fill="#6CCB6C"></circle><circle cx="63" cy="23" r="9.5" fill="#6CCB6C"></circle><circle cx="29" cy="56" r="4" fill="#FF9EB5" opacity="0.75"></circle><circle cx="71" cy="56" r="4" fill="#FF9EB5" opacity="0.75"></circle><circle cx="37" cy="23" r="6.2" fill="#fff"></circle><circle cx="63" cy="23" r="6.2" fill="#fff"></circle><circle cx="37" cy="23" r="3.6" fill="#3C1E00"></circle><circle cx="38.2" cy="21.7" r="1.1" fill="#fff"></circle><circle cx="63" cy="23" r="3.6" fill="#3C1E00"></circle><circle cx="64.2" cy="21.7" r="1.1" fill="#fff"></circle><path d="M41 60 Q50 67 59 60" fill="none" stroke="#3C1E00" stroke-width="2" stroke-linecap="round"></path><g fill="rgba(255,255,255,.28)" stroke="#4F6BFF" stroke-width="2.2" stroke-linecap="round"><circle cx="37" cy="23" r="7.5"></circle><circle cx="63" cy="23" r="7.5"></circle><path d="M44.5 23 L55.5 23 M29.5 22 L24 20 M70.5 22 L76 20" fill="none"></path></g></svg><rect x="8.6" y="11.2" width="5" height="1" rx="0.5" fill="#ffffff" fill-opacity="0.6"></rect></g></g><path d="M55,31.2 L96.6,11.3 C98.6,10.3 100.6,9.7 103,9.5 L120.6,8.3 C122.6,8.2 123.9,9.3 124,11.1 C124.1,13.4 122.2,14.9 120.6,16.4 C119.2,17.8 119,19.6 120.4,21 C122.4,22.9 123.6,24.4 123.6,27 L123.6,32.8 L159.5,32.5 C163.8,32.3 166.8,30.2 169.8,28.6 C171.8,27.6 173.8,27.3 176.6,27.4 L190,28.3 L200,29.8 L212,32.3 L247,39.2 L260,43.5 L270,46.7 L280,50.2 L290,54.1 C294,55.6 296.6,56.8 298.2,58 C299.6,59.1 299.4,60.6 298.2,61.5 L296.4,63.2 L284,62.4 L268,62 L265,64 L264.5,71.2 L246,71.2 L234,64 L207,73 L66,72.5 Z" fill="#31c35a"></path><path d="M86.6,52.3 C100,50 118,47.6 136,46.6 L183.6,46.6 C186.3,46.6 188,48.3 188,51 L188,64 L176,70 L171,77.8 L86.4,77.8 C84.6,77.8 83.5,76.7 83.5,74.9 L83.5,55.4 C83.5,53.7 84.8,52.6 86.6,52.3 Z" fill="#119a3e"></path><path d="M187,46.6 L204.5,46.6 L222,58 L207,73 L194,73 L194,63.8 L187,63.8 Z" fill="#119a3e"></path><path d="M238,51 L251,53.4 L296.2,62.9 L296.4,63.2 L284,62.4 L268,62 L265,64 L264.5,71.2 L246,71.2 L234,64 Z" fill="#119a3e"></path><path d="M167,77.8 C171.6,76.6 174.4,70.4 177.4,66.4 C178.6,64.8 180,63.8 182,63.8 L192.8,63.8 C194,63.8 194.8,64.6 194.9,65.8 L195.3,72.4 L197.6,72.4 L197.6,77.8 Z" fill="#119a3e"></path><path d="M268.5,59.2 C264.5,59.2 262.3,61.5 262.3,65.5 L262.3,70 C262.3,73.8 264.4,75.8 268,75.8 L293.8,76.2 C295.4,76.2 296.2,75.2 296.4,73.8 L297.2,70.4 L300.5,67.2 C301.2,66.5 301,65.6 300.1,65.1 L297,63.3 C296,62.8 295.2,62.6 294.2,62.5 Z" fill="#f4f5fb"></path><path d="M86.2,52.4 C100,50.1 118,47.7 136,46.7 L204,46.7" fill="none" stroke="#f4f5fb" stroke-width="1.4" stroke-linecap="round" stroke-linejoin="round"></path><path d="M251,53.4 L294.5,62.6" fill="none" stroke="#f4f5fb" stroke-width="1.4" stroke-linecap="round" stroke-linejoin="round"></path><path d="M154.5,57.1 L133.6,57.1 C129.9,57.1 127.6,59.1 127.6,61.7 C127.6,64.4 129.9,66.3 133.6,66.3 L146.5,66.5" fill="none" stroke="#31c35a" stroke-width="2" stroke-linecap="round" stroke-linejoin="round"></path><path d="M186,31 L200,32.8 L212,35.3 L247,42.4 L260,46.6 L270,49.8 L285.5,55.3" fill="none" stroke="#90e6a8" stroke-width="1.5" stroke-linecap="round" stroke-linejoin="round"></path><g transform="translate(125,7.6)"><rect x="0.2" y="22.8" width="36.4" height="2.8" rx="1.3" fill="#f4f5fb"></rect></g><path d="M180.6,22.3 C181.4,21.3 183.2,20.9 185.4,21 C188.4,21.2 191.2,22.6 193.6,24.6 C195.3,26 196.6,27.6 197.4,29.6 L192.2,29.8 C191.4,28.2 190.4,26.6 188.8,25.6 C187.4,24.7 185.6,24.4 183.2,24.4 C181.6,24.4 180.4,24 180.2,23.4 C180.1,23 180.3,22.6 180.6,22.3 Z" fill="#23263a"></path><path d="M110.2,6 C108.6,6 108.6,4.4 109.8,3.7 L113.4,1.6 C114.2,1.1 115.2,0.8 116.2,0.7 L120.4,0.3 C121.1,0.3 121.6,0.7 121.6,1.4 L121.6,4.1 C121.6,4.7 121.1,5.1 120.5,5.1 L116.7,5.3 L116.7,9.4 L114.1,9.4 L114.1,5.6 Z" fill="#23263a"></path><path d="M4.6,9.85 L4.6,1.2 L1.1,7.2 L5.9,7.2" fill="none" stroke="#ffffff" stroke-width="2.20" stroke-linecap="round" stroke-linejoin="round" transform="translate(20.90,13.10) scale(1)"></path><circle cx="47.5" cy="53.5" r="28.5" fill="#23263a"></circle><circle cx="47.5" cy="53.5" r="17.1" fill="#f4f5fb"></circle><circle cx="47.5" cy="53.5" r="5.42" fill="#23263a"></circle><circle cx="55.2" cy="53.5" r="3.99" fill="#23263a"></circle><circle cx="51.35" cy="60.16" r="3.99" fill="#23263a"></circle><circle cx="43.65" cy="60.16" r="3.99" fill="#23263a"></circle><circle cx="39.8" cy="53.5" r="3.99" fill="#23263a"></circle><circle cx="43.65" cy="46.84" r="3.99" fill="#23263a"></circle><circle cx="51.35" cy="46.84" r="3.99" fill="#23263a"></circle><circle cx="226" cy="57" r="25" fill="#23263a"></circle><circle cx="226" cy="57" r="15" fill="#f4f5fb"></circle><circle cx="226" cy="57" r="4.75" fill="#23263a"></circle><circle cx="232.75" cy="57" r="3.5" fill="#23263a"></circle><circle cx="229.38" cy="62.85" r="3.5" fill="#23263a"></circle><circle cx="222.63" cy="62.85" r="3.5" fill="#23263a"></circle><circle cx="219.25" cy="57" r="3.5" fill="#23263a"></circle><circle cx="222.63" cy="51.15" r="3.5" fill="#23263a"></circle><circle cx="229.38" cy="51.15" r="3.5" fill="#23263a"></circle></svg>